# xmcd CD database file
#
# Track frame offsets:
#	150
#	14976
#	29060
#	39583
#	54844
#	71716
#	88804
#	105463
#	116976
#	128797
#	145036
#	159113
#	169137
#	179566
#	193057
#	207962
#	219694
#	231960
#	247091
#	259072
#	269600
#	286418
#	301170
#
# Disc length: 4180 seconds
#
# Revision: 1
# Processed by: cddbd v1.5.2PL0 Copyright (c) Steve Scherf et al.
# Submitted via: CDex 1.51
#
DISCID=65105217
DTITLE=Various Artist - Nejhezèí country balady
DYEAR=1900
DGENRE=Country
TTITLE0=Crazy
TTITLE1=Annie's Song
TTITLE2=Lovesick Blues
TTITLE3=Have I Told Youlately That I Love You
TTITLE4=Don't Cry Joni
TTITLE5=I Believe In You
TTITLE6=You're The Best Thing That
TTITLE7=Help Me Make It Through The Night
TTITLE8=Crying
TTITLE9=Uou Light Up My Life
TTITLE10=Always Wanting You
TTITLE11=He'll Have To Go
TTITLE12=I Love You Honey
TTITLE13=Almost Persuaded
TTITLE14=You're The Best Break This Old Heart Ever Had
TTITLE15=If You Leave Me Tonight I'll Cry
TTITLE16=How Can I Unlove You
TTITLE17=On My Knees
TTITLE18=Stand By Your Man
TTITLE19=Release Me
TTITLE20=Today I Started Loving You Again
TTITLE21=Darlene
TTITLE22=This Time I've Hurt Her More Than She Loves Me
EXTD=
EXTT0=
EXTT1=
EXTT2=
EXTT3=
EXTT4=
EXTT5=
EXTT6=
EXTT7=
EXTT8=
EXTT9=
EXTT10=
EXTT11=
EXTT12=
EXTT13=
EXTT14=
EXTT15=
EXTT16=
EXTT17=
EXTT18=
EXTT19=
EXTT20=
EXTT21=
EXTT22=
PLAYORDER=
